<?xml version="1.0" encoding="utf-8"?>
<!-- Generator: Adobe Illustrator 27.8.0, SVG Export Plug-In . SVG Version: 6.00 Build 0)  -->
<svg version="1.1" id="Layer_1" xmlns="http://www.w3.org/2000/svg" xmlns:xlink="http://www.w3.org/1999/xlink" x="0px" y="0px"
	 viewBox="0 0 595.3 841.9" style="enable-background:new 0 0 595.3 841.9;" xml:space="preserve">
<style type="text/css">
	.st0{fill:#1E2C53;}
</style>
<g>
	<path class="st0" d="M93.4,383.3c-0.7,0-1.2-0.2-1.7-0.6c-0.4-0.4-0.6-0.9-0.6-1.5v-38.4c0-0.6,0.2-1.1,0.6-1.5
		c0.4-0.4,1-0.6,1.7-0.6c0.4,0,0.9,0.1,1.2,0.2c0.4,0.2,0.7,0.4,0.8,0.8c0.2,0.3,0.2,0.7,0.2,1.1v36.1h16.5c0.6,0,1.2,0.2,1.6,0.6
		c0.4,0.4,0.7,1,0.7,1.7c0,0.6-0.2,1.1-0.7,1.5c-0.4,0.4-1,0.6-1.6,0.6H93.4z"/>
	<path class="st0" d="M125.1,384.2c-1.6,0-3.1-0.4-4.4-1.1c-1.3-0.8-2.3-1.8-3.1-3.1c-0.7-1.3-1.1-2.8-1.1-4.4
		c0-1.7,0.4-3.3,1.2-4.6c0.8-1.3,1.9-2.4,3.4-3.2c1.5-0.8,3.2-1.2,5.2-1.2h8.9l-1.6,1.5v-4.7c0-1.2-0.3-2.3-0.8-3.3
		c-0.5-0.9-1.2-1.7-2.2-2.2c-1-0.5-2.1-0.8-3.3-0.8c-1.2,0-2.3,0.3-3.2,0.8c-0.9,0.5-1.7,1.4-2.4,2.5c-0.4,0.4-0.7,0.8-1.1,1
		s-0.8,0.3-1.2,0.3c-0.5,0-0.9-0.2-1.2-0.5c-0.3-0.3-0.5-0.8-0.5-1.2c0-0.6,0.2-1.3,0.7-2.1c0.4-0.7,1-1.4,1.8-1.9
		c0.9-0.9,2-1.6,3.2-2s2.5-0.7,3.9-0.7c2,0,3.8,0.4,5.5,1.3c1.6,0.9,2.9,2.1,3.8,3.7c0.9,1.5,1.4,3.2,1.4,5.1v18.1
		c0,0.6-0.2,1.1-0.6,1.5c-0.4,0.4-1,0.6-1.6,0.6c-0.4,0-0.8-0.1-1.1-0.3c-0.3-0.2-0.6-0.4-0.8-0.7c-0.2-0.3-0.3-0.7-0.3-1.1v-2.8
		l1.6,1.8h-2c-0.9,1.1-2.1,2-3.6,2.7C128.2,383.9,126.7,384.2,125.1,384.2z M126.1,380.5c1.3,0,2.7-0.4,4.1-1.1
		c1.4-0.7,2.5-1.6,3.5-2.6v-6.6h-7.4c-1.7,0-3,0.5-4,1.5c-1,1-1.5,2.2-1.5,3.7c0,1.5,0.5,2.8,1.4,3.7
		C123.2,380,124.5,380.5,126.1,380.5z"/>
	<path class="st0" d="M148.3,383.6c-0.4,0-0.8-0.1-1.1-0.3c-0.3-0.2-0.6-0.4-0.8-0.8c-0.2-0.3-0.3-0.7-0.3-1.1V356
		c0-0.6,0.2-1.1,0.6-1.5c0.4-0.4,0.9-0.6,1.6-0.6c0.5,0,0.9,0.1,1.2,0.3c0.3,0.2,0.5,0.4,0.7,0.7c0.1,0.3,0.2,0.6,0.2,0.8v2.3
		l-1.4-1.2h2c0.5-0.9,1.4-1.8,2.7-2.5c1.3-0.7,2.8-1.1,4.4-1.1c1.8,0,3.5,0.4,5,1.3c1.5,0.9,2.7,2.1,3.5,3.6
		c0.8,1.5,1.2,3.3,1.2,5.3v18c0,0.6-0.2,1.1-0.6,1.5c-0.4,0.4-0.9,0.6-1.5,0.6c-0.4,0-0.8-0.1-1.2-0.3c-0.3-0.2-0.6-0.4-0.8-0.8
		c-0.2-0.3-0.3-0.7-0.3-1.1v-18c0-1.2-0.3-2.4-0.8-3.3c-0.5-1-1.3-1.7-2.3-2.2c-1-0.5-2.1-0.8-3.5-0.8c-1.3,0-2.4,0.3-3.4,0.8
		c-1,0.5-1.7,1.3-2.3,2.2c-0.5,1-0.8,2.1-0.8,3.3v18c0,0.6-0.2,1.1-0.6,1.5C149.5,383.4,149,383.6,148.3,383.6z"/>
	<path class="st0" d="M185.3,384.2c-1.9,0-3.6-0.5-5.1-1.4c-1.6-0.9-2.8-2.2-3.7-3.8c-0.9-1.6-1.4-3.5-1.4-5.6v-9.3
		c0-2.1,0.5-3.9,1.4-5.6c0.9-1.6,2.1-2.9,3.7-3.8c1.6-0.9,3.3-1.4,5.1-1.4c1.8,0,3.5,0.5,4.9,1.4c1.4,0.9,2.4,2,2.9,3.3l-2.4-1.1
		h2.2v-13.3c0-0.6,0.2-1.1,0.6-1.5c0.4-0.4,1-0.6,1.6-0.6c0.4,0,0.8,0.1,1.1,0.3c0.3,0.2,0.6,0.4,0.8,0.7c0.2,0.3,0.3,0.7,0.3,1.1
		v37.9c0,0.6-0.2,1.1-0.6,1.5c-0.4,0.4-0.9,0.6-1.5,0.6c-0.4,0-0.8-0.1-1.1-0.2c-0.3-0.2-0.6-0.4-0.8-0.8c-0.2-0.3-0.3-0.7-0.3-1.2
		v-3.2l1.5,2.4h-1.9c-0.6,0.9-1.6,1.7-2.9,2.5C188.4,383.8,186.9,384.2,185.3,384.2z M186.3,380.3c1.3,0,2.5-0.3,3.4-0.8
		c1-0.5,1.7-1.3,2.3-2.3c0.6-1,0.8-2.2,0.8-3.4v-10c0-1.3-0.3-2.4-0.8-3.4c-0.6-1-1.3-1.8-2.3-2.3c-1-0.5-2.1-0.8-3.4-0.8
		c-1.3,0-2.5,0.3-3.5,0.9c-1.1,0.6-1.9,1.4-2.5,2.4c-0.6,1-0.9,2.3-0.9,3.6v9.3c0,1.3,0.3,2.5,0.9,3.6c0.6,1.1,1.4,1.9,2.5,2.4
		C183.9,380,185,380.3,186.3,380.3z"/>
	<path class="st0" d="M216.2,384.2c-2.2,0-4.1-0.5-5.9-1.4c-1.7-0.9-3.1-2.2-4.1-3.9c-1-1.6-1.5-3.5-1.5-5.5v-9.3
		c0-2,0.5-3.8,1.5-5.5c1-1.6,2.4-2.9,4.1-3.9c1.7-0.9,3.7-1.4,5.8-1.4c2.2,0,4.1,0.5,5.8,1.4c1.7,0.9,3.1,2.2,4,3.9
		c1,1.6,1.5,3.5,1.5,5.5c0,0.7,0,1.5,0,2.2s0,1.5,0,2.3c0,0.6-0.2,1.1-0.6,1.5s-1,0.5-1.7,0.5h-17.8l1.7-1.4v4.2
		c0,1.3,0.3,2.5,0.9,3.6c0.6,1.1,1.4,1.9,2.5,2.4c1.1,0.6,2.3,0.8,3.7,0.8c1.6,0,2.9-0.3,4-1c1.1-0.7,2-1.6,2.8-2.8
		c0.4-0.5,0.7-0.8,1-1.1c0.3-0.2,0.7-0.3,1.1-0.3c0.5,0,0.9,0.2,1.2,0.5c0.3,0.3,0.5,0.8,0.5,1.4c0,0.5-0.2,1-0.5,1.7
		c-0.3,0.6-0.8,1.3-1.4,1.9c-1,1.2-2.3,2.1-3.8,2.7C219.9,383.9,218.2,384.2,216.2,384.2z M209.1,368.2l-1.7-1.3h17.2l-1.4,1.3v-4.2
		c0-1.3-0.3-2.5-0.9-3.6c-0.6-1-1.4-1.9-2.5-2.4c-1.1-0.6-2.3-0.9-3.6-0.9c-1.4,0-2.6,0.3-3.6,0.9c-1.1,0.6-1.9,1.4-2.5,2.4
		c-0.6,1-0.9,2.2-0.9,3.6V368.2z"/>
	<path class="st0" d="M237,383.6c-0.4,0-0.8-0.1-1.1-0.3c-0.3-0.2-0.6-0.4-0.8-0.8c-0.2-0.3-0.3-0.7-0.3-1.1v-37.9
		c0-0.6,0.2-1.1,0.6-1.5c0.4-0.4,0.9-0.6,1.6-0.6c0.4,0,0.8,0.1,1.1,0.3c0.3,0.2,0.5,0.4,0.7,0.7c0.2,0.3,0.3,0.7,0.3,1.1v37.9
		c0,0.6-0.2,1.1-0.6,1.5C238.1,383.4,237.6,383.6,237,383.6z"/>
	<path class="st0" d="M249.5,347.7c-0.7,0-1.3-0.3-1.9-0.8c-0.5-0.5-0.8-1.2-0.8-2c0-0.8,0.3-1.4,0.8-1.9c0.5-0.5,1.1-0.8,1.9-0.8
		c0.8,0,1.5,0.3,2,0.8c0.5,0.5,0.8,1.2,0.8,1.9c0,0.8-0.3,1.5-0.8,2C251,347.5,250.3,347.7,249.5,347.7z M249.7,383.6
		c-0.4,0-0.8-0.1-1.1-0.3c-0.3-0.2-0.6-0.4-0.8-0.8c-0.2-0.3-0.3-0.7-0.3-1.1V356c0-0.6,0.2-1.1,0.6-1.5c0.4-0.4,0.9-0.6,1.6-0.6
		c0.4,0,0.8,0.1,1.1,0.3c0.3,0.2,0.5,0.4,0.7,0.7c0.2,0.3,0.3,0.7,0.3,1.1v25.5c0,0.6-0.2,1.1-0.6,1.5
		C250.8,383.4,250.3,383.6,249.7,383.6z"/>
	<path class="st0" d="M254.6,396.2c-0.6,0-1.1-0.2-1.4-0.5c-0.4-0.3-0.5-0.8-0.5-1.4c0-0.6,0.2-1.1,0.5-1.4c0.4-0.4,0.8-0.5,1.4-0.5
		h1.6c1.2,0,2.2-0.4,3-1.1c0.7-0.8,1.1-1.8,1.1-3.2V356c0-0.6,0.2-1.1,0.6-1.5c0.4-0.4,1-0.6,1.6-0.6c0.4,0,0.8,0.1,1.1,0.3
		c0.3,0.2,0.6,0.4,0.8,0.7c0.2,0.3,0.3,0.7,0.3,1.1v31.9c0,1.6-0.4,3-1.1,4.3c-0.7,1.2-1.7,2.2-3,2.9c-1.3,0.7-2.7,1.1-4.3,1.1
		H254.6z M262.4,347.7c-0.7,0-1.3-0.3-1.9-0.8c-0.5-0.5-0.8-1.2-0.8-2c0-0.8,0.3-1.4,0.8-1.9c0.5-0.5,1.1-0.8,1.9-0.8
		c0.8,0,1.5,0.3,2,0.8c0.5,0.5,0.8,1.2,0.8,1.9c0,0.8-0.3,1.5-0.8,2C263.9,347.5,263.2,347.7,262.4,347.7z"/>
	<path class="st0" d="M275.2,383.6c-0.4,0-0.8-0.1-1.1-0.3c-0.3-0.2-0.6-0.4-0.8-0.8c-0.2-0.3-0.3-0.7-0.3-1.1v-37.9
		c0-0.6,0.2-1.1,0.6-1.5c0.4-0.4,0.9-0.6,1.6-0.6c0.4,0,0.8,0.1,1.1,0.3c0.3,0.2,0.5,0.4,0.7,0.7c0.2,0.3,0.3,0.7,0.3,1.1v37.9
		c0,0.6-0.2,1.1-0.6,1.5C276.3,383.4,275.8,383.6,275.2,383.6z M275.2,370.3v-3.9h8.8v3.9H275.2z M292.4,383.6
		c-0.4,0-0.8-0.1-1.1-0.3c-0.3-0.2-0.6-0.5-0.9-0.9l-9.1-13.9l8.4-13.2c0.3-0.4,0.6-0.7,0.9-0.9c0.3-0.2,0.7-0.3,1.1-0.3
		c0.6,0,1.1,0.2,1.5,0.5c0.4,0.4,0.6,0.8,0.7,1.3c0.1,0.5-0.1,1-0.5,1.6l-8.2,12.5v-3.2l8.9,13.4c0.4,0.6,0.5,1.1,0.5,1.6
		c0,0.5-0.3,1-0.7,1.3C293.4,383.4,292.9,383.6,292.4,383.6z"/>
	<path class="st0" d="M310,384.2c-2.2,0-4.1-0.5-5.9-1.4c-1.7-0.9-3.1-2.2-4.1-3.9c-1-1.6-1.5-3.5-1.5-5.5v-9.3c0-2,0.5-3.8,1.5-5.5
		c1-1.6,2.4-2.9,4.1-3.9c1.7-0.9,3.7-1.4,5.8-1.4c2.2,0,4.1,0.5,5.8,1.4c1.7,0.9,3.1,2.2,4,3.9c1,1.6,1.5,3.5,1.5,5.5
		c0,0.7,0,1.5,0,2.2s0,1.5,0,2.3c0,0.6-0.2,1.1-0.6,1.5c-0.4,0.4-1,0.5-1.7,0.5h-17.8l1.7-1.4v4.2c0,1.3,0.3,2.5,0.9,3.6
		c0.6,1.1,1.4,1.9,2.5,2.4c1.1,0.6,2.3,0.8,3.7,0.8c1.6,0,2.9-0.3,4-1c1.1-0.7,2-1.6,2.8-2.8c0.4-0.5,0.7-0.8,1-1.1
		c0.3-0.2,0.7-0.3,1.1-0.3c0.5,0,0.9,0.2,1.2,0.5c0.3,0.3,0.5,0.8,0.5,1.4c0,0.5-0.2,1-0.5,1.7c-0.3,0.6-0.8,1.3-1.4,1.9
		c-1,1.2-2.3,2.1-3.8,2.7C313.7,383.9,312,384.2,310,384.2z M302.9,368.2l-1.7-1.3h17.2l-1.4,1.3v-4.2c0-1.3-0.3-2.5-0.9-3.6
		c-0.6-1-1.4-1.9-2.5-2.4c-1.1-0.6-2.3-0.9-3.6-0.9c-1.4,0-2.6,0.3-3.6,0.9c-1.1,0.6-1.9,1.4-2.5,2.4c-0.6,1-0.9,2.2-0.9,3.6V368.2z
		"/>
	<path class="st0" d="M342.1,359.8c-0.8,0-1.5-0.3-2-0.8c-0.5-0.6-0.8-1.2-0.8-2c0-0.8,0.3-1.5,0.8-2.1c0.5-0.6,1.2-0.8,2-0.8
		s1.5,0.3,2,0.8c0.5,0.6,0.8,1.2,0.8,2.1c0,0.8-0.3,1.4-0.8,2C343.6,359.5,342.9,359.8,342.1,359.8z M342.1,383.9
		c-0.8,0-1.5-0.3-2-0.8c-0.5-0.5-0.8-1.2-0.8-2.1c0-0.8,0.3-1.4,0.8-2c0.5-0.6,1.2-0.8,2-0.8s1.5,0.3,2,0.8c0.5,0.6,0.8,1.2,0.8,2
		c0,0.8-0.3,1.5-0.8,2.1C343.6,383.6,342.9,383.9,342.1,383.9z"/>
	<path class="st0" d="M367.8,383.3c-0.7,0-1.4-0.1-2-0.5c-0.6-0.3-1-0.7-1.4-1.2c-0.3-0.5-0.5-1.1-0.5-1.8v-35.3
		c0-1,0.4-1.8,1.1-2.4c0.7-0.7,1.6-1,2.7-1h10c3,0,5.7,0.6,8.1,1.9c2.4,1.3,4.2,3.1,5.5,5.4c1.3,2.3,2,4.9,2,7.9v11.8
		c0,2.9-0.7,5.6-2,7.9c-1.3,2.3-3.1,4.1-5.5,5.4c-2.4,1.3-5,1.9-8.1,1.9H367.8z M371.5,379.1l-2.7-2.7h8.9c1.6,0,3-0.3,4.2-1
		c1.2-0.7,2.1-1.6,2.8-2.9c0.7-1.2,1-2.7,1-4.4v-11.8c0-1.7-0.3-3.2-1-4.4c-0.7-1.2-1.6-2.2-2.8-2.9c-1.2-0.7-2.6-1-4.2-1h-8.9
		l2.7-2.7V379.1z"/>
	<path class="st0" d="M411.3,384.2c-2.3,0-4.4-0.5-6.3-1.5c-1.9-1-3.3-2.4-4.4-4.1c-1.1-1.7-1.6-3.6-1.6-5.6v-9.3
		c0-2,0.5-3.9,1.6-5.6c1.1-1.7,2.5-3.1,4.4-4.1c1.8-1,3.9-1.5,6.3-1.5c2.3,0,4.4,0.5,6.2,1.5c1.9,1,3.3,2.4,4.4,4.1
		c1,1.7,1.6,3.6,1.6,5.6v9.3c0,2-0.5,3.9-1.6,5.6c-1,1.7-2.5,3.1-4.4,4.1C415.7,383.7,413.6,384.2,411.3,384.2z M411.3,378.2
		c1,0,2-0.2,2.7-0.6c0.8-0.4,1.4-1,1.8-1.8c0.4-0.8,0.7-1.7,0.7-2.7v-9.3c0-1-0.2-1.9-0.7-2.7c-0.4-0.8-1.1-1.4-1.8-1.8
		c-0.8-0.4-1.7-0.6-2.7-0.6s-2,0.2-2.8,0.6s-1.4,1-1.9,1.8c-0.4,0.8-0.7,1.7-0.7,2.7v9.3c0,1,0.2,1.9,0.7,2.7
		c0.4,0.8,1.1,1.4,1.9,1.8S410.3,378.2,411.3,378.2z"/>
	<path class="st0" d="M441.5,384.2c-2.3,0-4.4-0.5-6.3-1.5c-1.9-1-3.3-2.4-4.4-4.1c-1.1-1.7-1.6-3.6-1.6-5.6v-9.3
		c0-2,0.5-3.9,1.6-5.6c1.1-1.7,2.5-3.1,4.4-4.1c1.9-1,3.9-1.5,6.3-1.5c1.6,0,3.2,0.3,4.7,0.9c1.5,0.6,2.8,1.4,3.8,2.4
		c0.7,0.7,1.2,1.4,1.6,2.2c0.4,0.8,0.6,1.5,0.6,2.4c0,0.8-0.3,1.4-0.8,1.9c-0.5,0.5-1.2,0.8-2,0.8c-0.7,0-1.3-0.2-1.8-0.5
		c-0.5-0.3-1.1-0.9-1.7-1.7c-0.7-0.9-1.4-1.5-2-1.9c-0.6-0.4-1.4-0.5-2.4-0.5c-1,0-2,0.2-2.8,0.6c-0.8,0.4-1.4,1-1.9,1.8
		c-0.4,0.8-0.7,1.7-0.7,2.7v9.3c0,1,0.2,1.9,0.7,2.7c0.4,0.8,1.1,1.4,1.9,1.8c0.8,0.4,1.7,0.6,2.8,0.6c1,0,1.8-0.2,2.6-0.6
		c0.7-0.4,1.5-1.2,2.4-2.2c0.7-0.8,1.3-1.4,1.8-1.8c0.5-0.3,1.1-0.5,1.7-0.5c0.8,0,1.5,0.3,2,0.8c0.5,0.5,0.8,1.2,0.8,1.9
		c0,0.9-0.2,1.8-0.7,2.6c-0.5,0.9-1.2,1.7-2,2.5c-1.1,1-2.5,1.8-4,2.4C444.5,383.9,443,384.2,441.5,384.2z"/>
	<path class="st0" d="M466.5,384.2c-1.8,0-3.5-0.3-5-0.9c-1.5-0.6-2.8-1.4-3.9-2.4c-0.8-0.7-1.3-1.4-1.7-2.1
		c-0.4-0.7-0.6-1.4-0.6-2.1c0-0.8,0.3-1.4,0.8-1.9c0.5-0.5,1.2-0.8,2-0.8c0.7,0,1.4,0.2,1.9,0.5c0.5,0.3,1.2,0.8,1.8,1.6
		c0.7,0.8,1.4,1.4,2.1,1.7s1.5,0.5,2.5,0.5c0.9,0,1.7-0.1,2.4-0.4c0.6-0.3,1.1-0.7,1.5-1.1c0.3-0.5,0.5-1,0.5-1.6
		c0-0.7-0.2-1.3-0.7-1.8c-0.5-0.5-1.1-0.9-1.8-1.2c-0.7-0.3-1.7-0.7-3-1.2c-1.9-0.7-3.5-1.4-4.7-2s-2.3-1.6-3.2-2.8
		c-0.9-1.2-1.3-2.8-1.3-4.6c0-1.5,0.5-3,1.4-4.3c0.9-1.3,2.1-2.4,3.7-3.2c1.6-0.8,3.4-1.2,5.5-1.2c1.7,0,3.3,0.3,4.7,0.8
		c1.4,0.5,2.6,1.2,3.5,2c0.7,0.6,1.2,1.2,1.6,1.9c0.4,0.7,0.6,1.3,0.6,1.9c0,0.8-0.3,1.4-0.8,1.9s-1.2,0.8-2.1,0.8
		c-0.6,0-1.1-0.1-1.6-0.3c-0.5-0.2-1-0.6-1.6-1.2c-0.7-0.6-1.4-1.1-2-1.4c-0.7-0.3-1.4-0.4-2.3-0.4c-0.8,0-1.4,0.1-2,0.4
		c-0.5,0.2-1,0.6-1.2,1c-0.3,0.4-0.4,0.9-0.4,1.4c0,0.7,0.2,1.3,0.7,1.8c0.5,0.5,1.1,0.9,1.8,1.3c0.7,0.3,1.8,0.8,3,1.2
		c1.9,0.7,3.5,1.4,4.7,2c1.2,0.6,2.3,1.5,3.2,2.8c0.9,1.2,1.3,2.8,1.3,4.7c0,1.6-0.5,3.1-1.4,4.5c-0.9,1.4-2.3,2.5-4,3.4
		C470.7,383.8,468.7,384.2,466.5,384.2z"/>
</g>
</svg>
