<?xml version="1.0" encoding="utf-8"?>
<!-- Generator: Adobe Illustrator 27.8.0, SVG Export Plug-In . SVG Version: 6.00 Build 0)  -->
<svg version="1.1" id="Layer_1" xmlns="http://www.w3.org/2000/svg" xmlns:xlink="http://www.w3.org/1999/xlink" x="0px" y="0px"
	 viewBox="0 0 595.3 841.9" style="enable-background:new 0 0 595.3 841.9;" xml:space="preserve">
<style type="text/css">
	.st0{fill:#1E2C53;}
	.st1{fill:#D6D900;}
	.st2{fill:#0BA9D1;}
</style>
<g>
	<g>
		<path class="st0" d="M122.7,377.6c-0.6,0-1-0.2-1.4-0.5c-0.4-0.4-0.5-0.8-0.5-1.3v-32.5c0-0.5,0.2-0.9,0.5-1.3
			c0.4-0.3,0.8-0.5,1.4-0.5c0.4,0,0.7,0.1,1,0.2c0.3,0.1,0.6,0.3,0.7,0.6c0.1,0.3,0.2,0.6,0.2,0.9v30.6h13.9c0.5,0,1,0.2,1.4,0.5
			c0.4,0.4,0.6,0.8,0.6,1.4c0,0.5-0.2,0.9-0.6,1.3c-0.4,0.4-0.8,0.5-1.4,0.5H122.7z"/>
		<path class="st0" d="M149.6,378.3c-1.4,0-2.6-0.3-3.7-1c-1.1-0.6-2-1.5-2.6-2.7c-0.6-1.1-0.9-2.4-0.9-3.7c0-1.5,0.3-2.8,1-3.9
			c0.7-1.1,1.6-2,2.9-2.7c1.2-0.7,2.7-1,4.4-1h7.6l-1.3,1.3v-4c0-1.1-0.2-2-0.6-2.8c-0.4-0.8-1-1.4-1.9-1.8
			c-0.8-0.4-1.8-0.6-2.8-0.6c-1,0-1.9,0.2-2.7,0.7s-1.4,1.2-2,2.1c-0.3,0.4-0.6,0.6-0.9,0.8c-0.3,0.2-0.6,0.3-1,0.3
			c-0.4,0-0.8-0.1-1-0.4c-0.3-0.3-0.4-0.6-0.4-1c0-0.5,0.2-1.1,0.6-1.7c0.4-0.6,0.9-1.2,1.5-1.6c0.8-0.7,1.7-1.3,2.7-1.7
			c1-0.4,2.1-0.6,3.3-0.6c1.7,0,3.2,0.4,4.6,1.1c1.4,0.7,2.5,1.8,3.2,3.1c0.8,1.3,1.2,2.7,1.2,4.3V376c0,0.5-0.2,0.9-0.5,1.3
			c-0.4,0.4-0.8,0.5-1.4,0.5c-0.3,0-0.6-0.1-0.9-0.2c-0.3-0.2-0.5-0.4-0.6-0.6s-0.2-0.6-0.2-0.9v-2.3l1.3,1.5h-1.7
			c-0.7,0.9-1.8,1.7-3,2.2C152.3,378,151,378.3,149.6,378.3z M150.5,375.2c1.1,0,2.3-0.3,3.4-0.9c1.2-0.6,2.2-1.3,2.9-2.2v-5.6h-6.2
			c-1.4,0-2.6,0.4-3.4,1.3c-0.8,0.8-1.3,1.9-1.3,3.1c0,1.3,0.4,2.3,1.2,3.1C148,374.8,149.1,375.2,150.5,375.2z"/>
		<path class="st0" d="M169.2,377.8c-0.4,0-0.7-0.1-1-0.2c-0.3-0.2-0.5-0.4-0.6-0.6c-0.2-0.3-0.2-0.6-0.2-0.9v-21.6
			c0-0.5,0.2-0.9,0.5-1.3c0.3-0.3,0.8-0.5,1.3-0.5c0.4,0,0.7,0.1,1,0.3c0.3,0.2,0.4,0.4,0.6,0.6c0.1,0.2,0.2,0.5,0.2,0.7v1.9l-1.2-1
			h1.7c0.4-0.8,1.2-1.5,2.3-2.1c1.1-0.6,2.4-0.9,3.8-0.9c1.5,0,2.9,0.4,4.2,1.1c1.3,0.7,2.3,1.7,3,3c0.7,1.3,1,2.8,1,4.5V376
			c0,0.5-0.2,0.9-0.5,1.3c-0.3,0.4-0.8,0.5-1.3,0.5c-0.4,0-0.7-0.1-1-0.2c-0.3-0.2-0.5-0.4-0.7-0.6c-0.2-0.3-0.2-0.6-0.2-0.9v-15.2
			c0-1.1-0.2-2-0.7-2.8c-0.4-0.8-1.1-1.4-1.9-1.9c-0.8-0.4-1.8-0.7-2.9-0.7c-1.1,0-2.1,0.2-2.9,0.7c-0.8,0.4-1.5,1.1-1.9,1.9
			c-0.5,0.8-0.7,1.8-0.7,2.8V376c0,0.5-0.2,0.9-0.5,1.3C170.2,377.6,169.8,377.8,169.2,377.8z"/>
		<path class="st0" d="M200.5,378.3c-1.6,0-3-0.4-4.3-1.2c-1.3-0.8-2.4-1.9-3.1-3.2c-0.8-1.4-1.1-3-1.1-4.7v-7.9
			c0-1.8,0.4-3.3,1.1-4.7c0.8-1.4,1.8-2.5,3.1-3.2c1.3-0.8,2.8-1.2,4.3-1.2c1.6,0,3,0.4,4.2,1.1s2,1.7,2.4,2.8l-2-0.9h1.9V344
			c0-0.5,0.2-0.9,0.5-1.3c0.4-0.3,0.8-0.5,1.4-0.5c0.3,0,0.6,0.1,0.9,0.2s0.5,0.4,0.6,0.6s0.2,0.6,0.2,0.9V376
			c0,0.5-0.2,0.9-0.5,1.3c-0.3,0.4-0.8,0.5-1.3,0.5c-0.4,0-0.7-0.1-1-0.2c-0.3-0.1-0.5-0.3-0.6-0.6c-0.2-0.3-0.2-0.6-0.2-1v-2.7
			l1.3,2h-1.6c-0.5,0.8-1.4,1.5-2.5,2.1C203.2,378,201.9,378.3,200.5,378.3z M201.4,375c1.1,0,2.1-0.2,2.9-0.7
			c0.8-0.5,1.5-1.1,1.9-2c0.5-0.9,0.7-1.8,0.7-2.9V361c0-1.1-0.2-2.1-0.7-2.9c-0.5-0.9-1.1-1.5-1.9-2c-0.8-0.5-1.8-0.7-2.9-0.7
			c-1.1,0-2.1,0.2-3,0.7c-0.9,0.5-1.6,1.2-2.1,2.1c-0.5,0.9-0.7,1.9-0.7,3.1v7.9c0,1.1,0.2,2.1,0.7,3c0.5,0.9,1.2,1.6,2.1,2.1
			C199.3,374.8,200.3,375,201.4,375z"/>
		<path class="st0" d="M226.7,378.3c-1.8,0-3.5-0.4-5-1.2c-1.5-0.8-2.6-1.9-3.5-3.3c-0.9-1.4-1.3-2.9-1.3-4.6v-7.9
			c0-1.7,0.4-3.2,1.3-4.6c0.8-1.4,2-2.5,3.5-3.3c1.5-0.8,3.1-1.2,4.9-1.2c1.8,0,3.5,0.4,4.9,1.2c1.4,0.8,2.6,1.9,3.4,3.3
			c0.8,1.4,1.3,2.9,1.3,4.6c0,0.6,0,1.2,0,1.9c0,0.6,0,1.3,0,1.9c0,0.5-0.2,1-0.5,1.3s-0.8,0.5-1.4,0.5h-15.1l1.4-1.2v3.5
			c0,1.1,0.3,2.1,0.8,3c0.5,0.9,1.2,1.6,2.1,2.1c0.9,0.5,1.9,0.7,3.1,0.7c1.3,0,2.5-0.3,3.4-0.8c0.9-0.6,1.7-1.4,2.4-2.4
			c0.3-0.4,0.6-0.7,0.9-0.9c0.3-0.2,0.6-0.3,1-0.3c0.4,0,0.8,0.1,1,0.4c0.3,0.3,0.4,0.7,0.4,1.1c0,0.4-0.1,0.9-0.4,1.4
			c-0.3,0.5-0.6,1.1-1.1,1.6c-0.9,1-1.9,1.8-3.2,2.3C229.8,378.1,228.4,378.3,226.7,378.3z M220.7,364.8l-1.4-1.1h14.5l-1.2,1.1
			v-3.5c0-1.1-0.2-2.1-0.7-3c-0.5-0.9-1.2-1.6-2.1-2.1c-0.9-0.5-1.9-0.7-3.1-0.7c-1.2,0-2.2,0.2-3.1,0.7c-0.9,0.5-1.6,1.2-2.1,2.1
			c-0.5,0.9-0.8,1.9-0.8,3V364.8z"/>
		<path class="st0" d="M244.3,377.8c-0.4,0-0.7-0.1-1-0.2c-0.3-0.2-0.5-0.4-0.6-0.6c-0.2-0.3-0.2-0.6-0.2-0.9V344
			c0-0.5,0.2-0.9,0.5-1.3c0.3-0.3,0.8-0.5,1.3-0.5c0.4,0,0.7,0.1,0.9,0.2c0.3,0.2,0.5,0.4,0.6,0.6s0.2,0.6,0.2,0.9V376
			c0,0.5-0.2,0.9-0.5,1.3C245.3,377.6,244.8,377.8,244.3,377.8z"/>
		<path class="st0" d="M254.9,347.5c-0.6,0-1.1-0.2-1.6-0.6c-0.4-0.4-0.7-1-0.7-1.7c0-0.6,0.2-1.2,0.7-1.6c0.4-0.4,1-0.7,1.6-0.7
			c0.7,0,1.3,0.2,1.7,0.7c0.5,0.4,0.7,1,0.7,1.6c0,0.7-0.2,1.2-0.7,1.7C256.1,347.2,255.6,347.5,254.9,347.5z M255,377.8
			c-0.4,0-0.7-0.1-1-0.2c-0.3-0.2-0.5-0.4-0.6-0.6c-0.2-0.3-0.2-0.6-0.2-0.9v-21.6c0-0.5,0.2-0.9,0.5-1.3s0.8-0.5,1.3-0.5
			c0.4,0,0.7,0.1,0.9,0.2c0.3,0.2,0.5,0.4,0.6,0.6s0.2,0.6,0.2,0.9V376c0,0.5-0.2,0.9-0.5,1.3C256,377.6,255.5,377.8,255,377.8z"/>
		<path class="st0" d="M259.2,388.4c-0.5,0-0.9-0.1-1.2-0.4s-0.5-0.7-0.5-1.2c0-0.5,0.2-0.9,0.5-1.2s0.7-0.5,1.2-0.5h1.3
			c1.1,0,1.9-0.3,2.5-1c0.6-0.6,0.9-1.5,0.9-2.7v-27c0-0.5,0.2-0.9,0.5-1.3c0.4-0.3,0.8-0.5,1.4-0.5c0.3,0,0.6,0.1,0.9,0.2
			c0.3,0.2,0.5,0.4,0.6,0.6s0.2,0.6,0.2,0.9v27c0,1.4-0.3,2.6-0.9,3.6c-0.6,1.1-1.4,1.9-2.5,2.5c-1.1,0.6-2.3,0.9-3.6,0.9H259.2z
			 M265.8,347.5c-0.6,0-1.1-0.2-1.6-0.6c-0.4-0.4-0.7-1-0.7-1.7c0-0.6,0.2-1.2,0.7-1.6c0.4-0.4,1-0.7,1.6-0.7c0.7,0,1.3,0.2,1.7,0.7
			c0.5,0.4,0.7,1,0.7,1.6c0,0.7-0.2,1.2-0.7,1.7C267,347.2,266.5,347.5,265.8,347.5z"/>
		<path class="st0" d="M276.6,377.8c-0.4,0-0.7-0.1-1-0.2c-0.3-0.2-0.5-0.4-0.6-0.6c-0.2-0.3-0.2-0.6-0.2-0.9V344
			c0-0.5,0.2-0.9,0.5-1.3c0.3-0.3,0.8-0.5,1.3-0.5c0.4,0,0.7,0.1,0.9,0.2c0.3,0.2,0.5,0.4,0.6,0.6s0.2,0.6,0.2,0.9V376
			c0,0.5-0.2,0.9-0.5,1.3C277.6,377.6,277.1,377.8,276.6,377.8z M276.6,366.6v-3.3h7.5v3.3H276.6z M291.1,377.8
			c-0.4,0-0.7-0.1-1-0.3c-0.3-0.2-0.5-0.5-0.8-0.8l-7.7-11.8l7.1-11.2c0.2-0.3,0.5-0.6,0.8-0.8c0.3-0.2,0.6-0.3,1-0.3
			c0.5,0,0.9,0.2,1.3,0.5c0.3,0.3,0.5,0.7,0.6,1.1c0.1,0.4-0.1,0.9-0.4,1.3l-6.9,10.6v-2.7l7.5,11.3c0.3,0.5,0.4,0.9,0.4,1.4
			c0,0.4-0.2,0.8-0.6,1.1S291.6,377.8,291.1,377.8z"/>
		<path class="st0" d="M306.1,378.3c-1.8,0-3.5-0.4-5-1.2c-1.5-0.8-2.6-1.9-3.5-3.3c-0.9-1.4-1.3-2.9-1.3-4.6v-7.9
			c0-1.7,0.4-3.2,1.3-4.6c0.8-1.4,2-2.5,3.5-3.3c1.5-0.8,3.1-1.2,4.9-1.2c1.8,0,3.5,0.4,4.9,1.2c1.4,0.8,2.6,1.9,3.4,3.3
			c0.8,1.4,1.3,2.9,1.3,4.6c0,0.6,0,1.2,0,1.9c0,0.6,0,1.3,0,1.9c0,0.5-0.2,1-0.5,1.3s-0.8,0.5-1.4,0.5h-15.1l1.4-1.2v3.5
			c0,1.1,0.3,2.1,0.8,3c0.5,0.9,1.2,1.6,2.1,2.1c0.9,0.5,1.9,0.7,3.1,0.7c1.3,0,2.5-0.3,3.4-0.8c0.9-0.6,1.7-1.4,2.4-2.4
			c0.3-0.4,0.6-0.7,0.9-0.9c0.3-0.2,0.6-0.3,1-0.3c0.4,0,0.8,0.1,1,0.4c0.3,0.3,0.4,0.7,0.4,1.1c0,0.4-0.1,0.9-0.4,1.4
			c-0.3,0.5-0.6,1.1-1.1,1.6c-0.9,1-1.9,1.8-3.2,2.3C309.2,378.1,307.7,378.3,306.1,378.3z M300.1,364.8l-1.4-1.1h14.5l-1.2,1.1
			v-3.5c0-1.1-0.2-2.1-0.7-3c-0.5-0.9-1.2-1.6-2.1-2.1c-0.9-0.5-1.9-0.7-3.1-0.7c-1.2,0-2.2,0.2-3.1,0.7c-0.9,0.5-1.6,1.2-2.1,2.1
			c-0.5,0.9-0.8,1.9-0.8,3V364.8z"/>
		<path class="st0" d="M333.3,357.7c-0.7,0-1.3-0.2-1.7-0.7c-0.5-0.5-0.7-1-0.7-1.7c0-0.7,0.2-1.3,0.7-1.7c0.5-0.5,1-0.7,1.7-0.7
			s1.2,0.2,1.7,0.7c0.4,0.5,0.7,1.1,0.7,1.7c0,0.6-0.2,1.2-0.7,1.7C334.5,357.4,333.9,357.7,333.3,357.7z M333.3,378.1
			c-0.7,0-1.3-0.2-1.7-0.7c-0.5-0.5-0.7-1-0.7-1.8c0-0.6,0.2-1.2,0.7-1.7c0.5-0.5,1-0.7,1.7-0.7s1.2,0.2,1.7,0.7
			c0.4,0.5,0.7,1,0.7,1.7c0,0.7-0.2,1.3-0.7,1.8C334.5,377.8,333.9,378.1,333.3,378.1z"/>
		<path class="st0" d="M354.9,377.6c-0.6,0-1.2-0.1-1.7-0.4c-0.5-0.3-0.9-0.6-1.1-1c-0.3-0.4-0.4-0.9-0.4-1.5v-29.9
			c0-0.8,0.3-1.5,0.9-2.1c0.6-0.6,1.4-0.8,2.3-0.8h8.4c2.6,0,4.8,0.5,6.8,1.6c2,1.1,3.5,2.6,4.6,4.6c1.1,2,1.7,4.2,1.7,6.7v10
			c0,2.5-0.6,4.7-1.7,6.7c-1.1,2-2.7,3.5-4.6,4.6s-4.3,1.6-6.8,1.6H354.9z M358.1,374l-2.3-2.3h7.6c1.3,0,2.5-0.3,3.5-0.8
			c1-0.6,1.8-1.4,2.4-2.4c0.6-1.1,0.8-2.3,0.8-3.7v-10c0-1.4-0.3-2.7-0.8-3.7c-0.6-1.1-1.4-1.9-2.4-2.4c-1-0.6-2.2-0.8-3.5-0.8h-7.6
			l2.3-2.3V374z"/>
		<path class="st0" d="M391.8,378.3c-2,0-3.7-0.4-5.3-1.3c-1.6-0.9-2.8-2-3.7-3.4c-0.9-1.4-1.4-3-1.4-4.7V361c0-1.7,0.5-3.3,1.4-4.7
			c0.9-1.4,2.1-2.6,3.7-3.4c1.6-0.9,3.3-1.3,5.3-1.3c1.9,0,3.7,0.4,5.3,1.3c1.6,0.9,2.8,2,3.7,3.4c0.9,1.4,1.3,3,1.3,4.7v7.9
			c0,1.7-0.4,3.3-1.3,4.7c-0.9,1.4-2.1,2.6-3.7,3.4C395.5,377.9,393.7,378.3,391.8,378.3z M391.8,373.2c0.9,0,1.7-0.2,2.3-0.5
			c0.7-0.4,1.2-0.9,1.6-1.5c0.4-0.7,0.6-1.4,0.6-2.3V361c0-0.9-0.2-1.6-0.6-2.3c-0.4-0.7-0.9-1.2-1.6-1.5c-0.7-0.4-1.4-0.5-2.3-0.5
			c-0.9,0-1.7,0.2-2.3,0.5c-0.7,0.4-1.2,0.9-1.6,1.5c-0.4,0.7-0.6,1.4-0.6,2.3v7.9c0,0.9,0.2,1.6,0.6,2.3c0.4,0.7,0.9,1.2,1.6,1.5
			C390.1,373.1,390.9,373.2,391.8,373.2z"/>
		<path class="st0" d="M417.3,378.3c-2,0-3.7-0.4-5.3-1.3c-1.6-0.9-2.8-2-3.7-3.4c-0.9-1.4-1.4-3-1.4-4.7V361c0-1.7,0.5-3.3,1.4-4.7
			c0.9-1.4,2.1-2.6,3.7-3.4c1.6-0.9,3.3-1.3,5.3-1.3c1.4,0,2.7,0.3,4,0.8c1.3,0.5,2.4,1.2,3.2,2c0.6,0.6,1,1.2,1.4,1.8
			c0.3,0.6,0.5,1.3,0.5,2c0,0.6-0.2,1.2-0.7,1.6c-0.5,0.4-1,0.7-1.7,0.7c-0.6,0-1.1-0.1-1.5-0.4c-0.4-0.3-0.9-0.7-1.4-1.4
			c-0.6-0.7-1.2-1.3-1.7-1.6s-1.2-0.5-2-0.5c-0.9,0-1.7,0.2-2.3,0.5c-0.7,0.4-1.2,0.9-1.6,1.5c-0.4,0.7-0.6,1.4-0.6,2.3v7.9
			c0,0.9,0.2,1.6,0.6,2.3c0.4,0.7,0.9,1.2,1.6,1.5c0.7,0.4,1.5,0.5,2.3,0.5c0.8,0,1.5-0.2,2.2-0.5c0.6-0.4,1.3-1,2-1.9
			c0.6-0.7,1.1-1.2,1.5-1.5c0.4-0.3,0.9-0.4,1.5-0.4c0.7,0,1.2,0.2,1.7,0.7c0.5,0.4,0.7,1,0.7,1.6c0,0.7-0.2,1.5-0.6,2.2
			c-0.4,0.7-1,1.4-1.7,2.1c-1,0.9-2.1,1.5-3.4,2C419.9,378.1,418.6,378.3,417.3,378.3z"/>
		<path class="st0" d="M438.5,378.3c-1.5,0-2.9-0.3-4.2-0.8s-2.4-1.2-3.3-2c-0.6-0.6-1.1-1.2-1.5-1.8c-0.3-0.6-0.5-1.2-0.5-1.8
			c0-0.6,0.2-1.2,0.7-1.6c0.5-0.4,1-0.7,1.7-0.7c0.6,0,1.1,0.1,1.6,0.4c0.5,0.3,1,0.7,1.6,1.4c0.6,0.7,1.2,1.2,1.8,1.4
			c0.6,0.3,1.3,0.4,2.1,0.4c0.8,0,1.4-0.1,2-0.4s1-0.6,1.2-1c0.3-0.4,0.4-0.9,0.4-1.3c0-0.6-0.2-1.1-0.6-1.6c-0.4-0.4-0.9-0.8-1.5-1
			c-0.6-0.3-1.5-0.6-2.6-1c-1.6-0.6-3-1.2-4-1.7c-1-0.5-1.9-1.3-2.7-2.3c-0.7-1-1.1-2.3-1.1-3.9c0-1.3,0.4-2.5,1.1-3.6
			c0.8-1.1,1.8-2,3.2-2.7c1.3-0.7,2.9-1,4.6-1c1.5,0,2.8,0.2,4,0.7c1.2,0.4,2.2,1,3,1.7c0.6,0.5,1,1.1,1.4,1.6
			c0.3,0.6,0.5,1.1,0.5,1.6c0,0.6-0.2,1.2-0.7,1.6c-0.5,0.4-1.1,0.7-1.7,0.7c-0.5,0-1-0.1-1.4-0.3c-0.4-0.2-0.8-0.5-1.4-1
			c-0.6-0.5-1.1-0.9-1.7-1.2c-0.6-0.2-1.2-0.4-2-0.4c-0.6,0-1.2,0.1-1.7,0.3c-0.5,0.2-0.8,0.5-1,0.8c-0.2,0.4-0.4,0.7-0.4,1.1
			c0,0.6,0.2,1.1,0.6,1.5c0.4,0.4,0.9,0.8,1.6,1.1c0.6,0.3,1.5,0.6,2.6,1c1.6,0.6,2.9,1.2,4,1.7c1.1,0.5,1.9,1.3,2.7,2.3
			c0.7,1,1.1,2.4,1.1,4c0,1.4-0.4,2.6-1.2,3.8c-0.8,1.2-1.9,2.1-3.4,2.9C442,378,440.4,378.3,438.5,378.3z"/>
	</g>
	<path class="st1" d="M244.9,314.4c-3.4,0-6.2-1-8.4-2.9c-2.1-1.9-3.2-4.7-3.2-8.4c0-1.5,0.1-2.8,0.4-4c0.2-1.2,0.5-2.5,0.7-3.7
		c0.2-1.3,0.4-2.6,0.4-4.1c0-1.1-0.2-2-0.7-2.9c-0.4-0.9-1.2-1.6-2.1-2.1c-1-0.6-2.3-0.9-4-1.1V278c1.7-0.2,3.1-0.5,4-1.1
		c1-0.5,1.7-1.2,2.1-2.1c0.4-0.9,0.7-1.8,0.7-2.9c0-1.5-0.1-2.9-0.4-4.1c-0.2-1.3-0.5-2.5-0.7-3.7c-0.2-1.2-0.4-2.6-0.4-4
		c0-3.7,1.1-6.4,3.2-8.3c2.1-1.9,4.9-2.8,8.4-2.8h4.3v7.4h-2.7c-1.5,0-2.7,0.4-3.5,1.1c-0.8,0.7-1.2,1.9-1.2,3.4
		c0,1.1,0.1,2.2,0.3,3.4c0.2,1.2,0.4,2.4,0.6,3.7c0.2,1.3,0.3,2.8,0.3,4.4c0,2.3-0.6,4.3-1.7,6c-1.1,1.6-3,2.7-5.5,3.2v0.1
		c2.5,0.5,4.3,1.6,5.5,3.3c1.1,1.7,1.7,3.7,1.7,6c0,1.6-0.1,3.1-0.3,4.4c-0.2,1.3-0.4,2.5-0.6,3.6c-0.2,1.1-0.3,2.3-0.3,3.4
		c0,1.5,0.4,2.7,1.2,3.4c0.8,0.8,1.9,1.1,3.5,1.1h2.7v7.4H244.9z"/>
	<path class="st1" d="M310,314.4h-4.3v-7.4h2.7c1.6,0,2.8-0.4,3.5-1.1c0.8-0.8,1.1-1.9,1.1-3.4c0-1.1-0.1-2.3-0.3-3.4
		c-0.2-1.1-0.4-2.3-0.6-3.6c-0.2-1.3-0.3-2.8-0.3-4.4c0-2.3,0.6-4.3,1.7-6c1.1-1.7,3-2.8,5.5-3.3v-0.1c-2.5-0.5-4.4-1.6-5.5-3.2
		c-1.2-1.6-1.7-3.6-1.7-6c0-1.6,0.1-3.1,0.3-4.4c0.2-1.3,0.4-2.5,0.6-3.7c0.2-1.1,0.3-2.3,0.3-3.4c0-1.6-0.4-2.7-1.1-3.4
		c-0.8-0.7-1.9-1.1-3.5-1.1h-2.7v-7.4h4.3c3.5,0,6.3,0.9,8.4,2.8c2.1,1.9,3.2,4.7,3.2,8.3c0,1.5-0.1,2.8-0.3,4
		c-0.2,1.2-0.5,2.5-0.7,3.7c-0.2,1.3-0.4,2.6-0.4,4.1c0,1.1,0.2,2,0.7,2.9c0.4,0.9,1.1,1.6,2.1,2.1c1,0.5,2.3,0.9,4,1.1v7.2
		c-1.7,0.2-3,0.5-4,1.1c-1,0.6-1.7,1.3-2.1,2.1c-0.4,0.9-0.7,1.8-0.7,2.9c0,1.5,0.1,2.9,0.4,4.1c0.2,1.3,0.5,2.5,0.7,3.7
		c0.2,1.2,0.3,2.6,0.3,4c0,3.7-1.1,6.5-3.2,8.4C316.3,313.4,313.5,314.4,310,314.4z"/>
	<g>
		<rect x="254.3" y="266" class="st0" width="48.4" height="35.3"/>
		<polygon class="st1" points="254.3,301.3 290.3,292.1 290.3,257.3 254.3,266 		"/>
		<polygon class="st2" points="254.3,301.3 278.6,283.7 278.6,247.6 254.3,266 		"/>
	</g>
</g>
</svg>
