<?xml version="1.0" encoding="utf-8"?>
<!-- Generator: Adobe Illustrator 27.8.0, SVG Export Plug-In . SVG Version: 6.00 Build 0)  -->
<svg version="1.1" id="Layer_1" xmlns="http://www.w3.org/2000/svg" xmlns:xlink="http://www.w3.org/1999/xlink" x="0px" y="0px"
	 viewBox="0 0 595.3 841.9" style="enable-background:new 0 0 595.3 841.9;" xml:space="preserve">
<style type="text/css">
	.st0{fill:#FFFFFF;}
	.st1{fill:#D6D900;}
	.st2{fill:#0BA9D1;}
</style>
<g>
	<g>
		<path class="st0" d="M120.1,445.8c-0.6,0-1.1-0.2-1.4-0.5s-0.5-0.8-0.5-1.3v-33.1c0-0.5,0.2-1,0.5-1.3c0.4-0.3,0.8-0.5,1.4-0.5
			c0.4,0,0.7,0.1,1.1,0.2c0.3,0.1,0.6,0.4,0.7,0.6c0.1,0.3,0.2,0.6,0.2,1V442h14.2c0.6,0,1,0.2,1.4,0.5c0.4,0.4,0.6,0.8,0.6,1.4
			c0,0.5-0.2,0.9-0.6,1.3c-0.4,0.4-0.8,0.5-1.4,0.5H120.1z"/>
		<path class="st0" d="M147.4,446.6c-1.4,0-2.6-0.3-3.8-1c-1.1-0.7-2-1.6-2.6-2.7c-0.6-1.1-1-2.4-1-3.8c0-1.5,0.3-2.8,1-3.9
			c0.7-1.1,1.6-2,2.9-2.7c1.3-0.7,2.8-1,4.5-1h7.7l-1.3,1.3v-4c0-1.1-0.2-2-0.6-2.8c-0.4-0.8-1.1-1.4-1.9-1.9
			c-0.8-0.4-1.8-0.6-2.9-0.6c-1,0-1.9,0.2-2.7,0.7s-1.5,1.2-2,2.2c-0.3,0.4-0.6,0.7-0.9,0.8c-0.3,0.2-0.7,0.3-1,0.3
			c-0.4,0-0.8-0.1-1.1-0.4c-0.3-0.3-0.4-0.6-0.4-1.1c0-0.6,0.2-1.1,0.6-1.8c0.4-0.6,0.9-1.2,1.6-1.7c0.8-0.8,1.7-1.3,2.8-1.7
			c1.1-0.4,2.2-0.6,3.3-0.6c1.7,0,3.3,0.4,4.7,1.1c1.4,0.8,2.5,1.8,3.3,3.1c0.8,1.3,1.2,2.8,1.2,4.4v15.6c0,0.5-0.2,0.9-0.5,1.3
			c-0.4,0.4-0.8,0.5-1.4,0.5c-0.3,0-0.7-0.1-0.9-0.2c-0.3-0.2-0.5-0.4-0.6-0.6c-0.2-0.3-0.2-0.6-0.2-0.9v-2.4l1.3,1.5h-1.7
			c-0.8,0.9-1.8,1.7-3.1,2.3C150.1,446.3,148.7,446.6,147.4,446.6z M148.2,443.3c1.1,0,2.3-0.3,3.5-0.9c1.2-0.6,2.2-1.4,3-2.3v-5.7
			h-6.3c-1.5,0-2.6,0.4-3.5,1.3c-0.8,0.8-1.3,1.9-1.3,3.2c0,1.3,0.4,2.4,1.2,3.2C145.8,442.9,146.9,443.3,148.2,443.3z"/>
		<path class="st0" d="M167.3,446c-0.4,0-0.7-0.1-1-0.2c-0.3-0.2-0.5-0.4-0.6-0.6c-0.2-0.3-0.2-0.6-0.2-0.9v-21.9
			c0-0.5,0.2-0.9,0.5-1.3c0.3-0.3,0.8-0.5,1.3-0.5c0.4,0,0.8,0.1,1,0.3c0.3,0.2,0.4,0.4,0.6,0.6c0.1,0.2,0.2,0.5,0.2,0.7v2l-1.2-1
			h1.7c0.4-0.8,1.2-1.5,2.4-2.1c1.1-0.6,2.4-0.9,3.8-0.9c1.6,0,3,0.4,4.3,1.1c1.3,0.7,2.3,1.8,3,3.1c0.7,1.3,1.1,2.8,1.1,4.6v15.5
			c0,0.5-0.2,0.9-0.5,1.3c-0.3,0.4-0.8,0.5-1.3,0.5c-0.4,0-0.7-0.1-1-0.2c-0.3-0.2-0.5-0.4-0.7-0.6c-0.2-0.3-0.2-0.6-0.2-0.9v-15.5
			c0-1.1-0.2-2-0.7-2.9c-0.4-0.8-1.1-1.5-1.9-1.9c-0.8-0.4-1.8-0.7-3-0.7c-1.1,0-2.1,0.2-2.9,0.7c-0.8,0.4-1.5,1.1-2,1.9
			c-0.5,0.8-0.7,1.8-0.7,2.9v15.5c0,0.5-0.2,0.9-0.5,1.3C168.3,445.9,167.9,446,167.3,446z"/>
		<path class="st0" d="M199.1,446.6c-1.6,0-3.1-0.4-4.4-1.2c-1.3-0.8-2.4-1.9-3.2-3.3c-0.8-1.4-1.2-3-1.2-4.8v-8
			c0-1.8,0.4-3.4,1.2-4.8c0.8-1.4,1.8-2.5,3.2-3.3c1.3-0.8,2.8-1.2,4.4-1.2c1.6,0,3,0.4,4.2,1.2c1.2,0.8,2,1.7,2.5,2.8l-2.1-0.9h1.9
			v-11.4c0-0.5,0.2-0.9,0.5-1.3c0.4-0.3,0.8-0.5,1.4-0.5c0.3,0,0.7,0.1,0.9,0.2s0.5,0.4,0.6,0.6s0.2,0.6,0.2,0.9v32.6
			c0,0.5-0.2,0.9-0.5,1.3c-0.3,0.4-0.8,0.5-1.3,0.5c-0.4,0-0.7-0.1-1-0.2c-0.3-0.1-0.5-0.4-0.6-0.6c-0.2-0.3-0.2-0.6-0.2-1v-2.8
			l1.3,2.1h-1.6c-0.6,0.8-1.4,1.5-2.5,2.1C201.8,446.2,200.6,446.6,199.1,446.6z M200,443.2c1.1,0,2.1-0.2,3-0.7s1.5-1.1,2-2
			c0.5-0.9,0.7-1.9,0.7-3V429c0-1.1-0.2-2.1-0.7-3c-0.5-0.9-1.1-1.5-2-2s-1.8-0.7-3-0.7c-1.1,0-2.1,0.3-3,0.8
			c-0.9,0.5-1.6,1.2-2.1,2.1c-0.5,0.9-0.8,1.9-0.8,3.1v8c0,1.1,0.3,2.2,0.8,3.1c0.5,0.9,1.2,1.6,2.1,2.1
			C197.9,442.9,198.9,443.2,200,443.2z"/>
		<path class="st0" d="M225.8,446.6c-1.9,0-3.5-0.4-5-1.2c-1.5-0.8-2.7-1.9-3.5-3.3c-0.9-1.4-1.3-3-1.3-4.7v-8
			c0-1.7,0.4-3.3,1.3-4.7c0.8-1.4,2-2.5,3.5-3.3c1.5-0.8,3.2-1.2,5-1.2c1.9,0,3.5,0.4,5,1.2c1.5,0.8,2.6,1.9,3.5,3.3
			c0.8,1.4,1.3,3,1.3,4.7c0,0.6,0,1.3,0,1.9c0,0.6,0,1.3,0,1.9c0,0.6-0.2,1-0.5,1.3c-0.4,0.3-0.8,0.5-1.4,0.5h-15.3l1.5-1.2v3.6
			c0,1.1,0.3,2.2,0.8,3.1c0.5,0.9,1.2,1.6,2.2,2.1c0.9,0.5,2,0.7,3.2,0.7c1.3,0,2.5-0.3,3.5-0.9c1-0.6,1.8-1.4,2.4-2.4
			c0.3-0.4,0.6-0.7,0.9-0.9c0.3-0.2,0.6-0.3,1-0.3c0.4,0,0.8,0.1,1.1,0.4c0.3,0.3,0.4,0.7,0.4,1.2c0,0.4-0.1,0.9-0.4,1.4
			c-0.3,0.5-0.6,1.1-1.2,1.6c-0.9,1-2,1.8-3.2,2.3C228.9,446.3,227.4,446.6,225.8,446.6z M219.6,432.8l-1.5-1.1H233l-1.2,1.1v-3.6
			c0-1.1-0.3-2.2-0.8-3.1c-0.5-0.9-1.2-1.6-2.1-2.1c-0.9-0.5-2-0.8-3.1-0.8c-1.2,0-2.2,0.3-3.1,0.8c-0.9,0.5-1.6,1.2-2.2,2.1
			c-0.5,0.9-0.8,1.9-0.8,3.1V432.8z"/>
		<path class="st0" d="M243.6,446c-0.4,0-0.7-0.1-1-0.2c-0.3-0.2-0.5-0.4-0.6-0.6c-0.2-0.3-0.2-0.6-0.2-0.9v-32.6
			c0-0.5,0.2-0.9,0.5-1.3c0.3-0.3,0.8-0.5,1.3-0.5c0.4,0,0.7,0.1,1,0.2s0.5,0.4,0.6,0.6c0.2,0.3,0.2,0.6,0.2,0.9v32.6
			c0,0.5-0.2,0.9-0.5,1.3C244.6,445.9,244.2,446,243.6,446z"/>
		<path class="st0" d="M254.4,415.2c-0.6,0-1.2-0.2-1.6-0.6c-0.5-0.4-0.7-1-0.7-1.7c0-0.7,0.2-1.2,0.7-1.7c0.4-0.4,1-0.7,1.6-0.7
			c0.7,0,1.3,0.2,1.7,0.7c0.5,0.4,0.7,1,0.7,1.7c0,0.7-0.2,1.3-0.7,1.7C255.7,414.9,255.1,415.2,254.4,415.2z M254.5,446
			c-0.4,0-0.7-0.1-1-0.2c-0.3-0.2-0.5-0.4-0.6-0.6c-0.2-0.3-0.2-0.6-0.2-0.9v-21.9c0-0.5,0.2-0.9,0.5-1.3c0.3-0.3,0.8-0.5,1.3-0.5
			c0.4,0,0.7,0.1,1,0.2s0.5,0.4,0.6,0.6s0.2,0.6,0.2,0.9v21.9c0,0.5-0.2,0.9-0.5,1.3C255.5,445.9,255.1,446,254.5,446z"/>
		<path class="st0" d="M258.8,456.8c-0.5,0-0.9-0.1-1.2-0.4c-0.3-0.3-0.5-0.7-0.5-1.2s0.2-0.9,0.5-1.2s0.7-0.5,1.2-0.5h1.3
			c1.1,0,1.9-0.3,2.6-1c0.6-0.7,1-1.6,1-2.7v-27.4c0-0.5,0.2-0.9,0.5-1.3s0.8-0.5,1.4-0.5c0.3,0,0.7,0.1,0.9,0.2
			c0.3,0.2,0.5,0.4,0.6,0.6s0.2,0.6,0.2,0.9v27.4c0,1.4-0.3,2.6-0.9,3.7c-0.6,1.1-1.5,1.9-2.5,2.5c-1.1,0.6-2.3,0.9-3.7,0.9H258.8z
			 M265.5,415.2c-0.6,0-1.2-0.2-1.6-0.6c-0.5-0.4-0.7-1-0.7-1.7c0-0.7,0.2-1.2,0.7-1.7c0.4-0.4,1-0.7,1.6-0.7c0.7,0,1.3,0.2,1.7,0.7
			c0.5,0.4,0.7,1,0.7,1.7c0,0.7-0.2,1.3-0.7,1.7C266.7,414.9,266.2,415.2,265.5,415.2z"/>
		<path class="st0" d="M276.5,446c-0.4,0-0.7-0.1-1-0.2c-0.3-0.2-0.5-0.4-0.6-0.6c-0.2-0.3-0.2-0.6-0.2-0.9v-32.6
			c0-0.5,0.2-0.9,0.5-1.3c0.3-0.3,0.8-0.5,1.3-0.5c0.4,0,0.7,0.1,1,0.2s0.5,0.4,0.6,0.6s0.2,0.6,0.2,0.9v32.6c0,0.5-0.2,0.9-0.5,1.3
			C277.5,445.9,277,446,276.5,446z M276.5,434.6v-3.4h7.6v3.4H276.5z M291.3,446c-0.4,0-0.7-0.1-1-0.3c-0.3-0.2-0.5-0.5-0.8-0.8
			l-7.8-12l7.3-11.4c0.2-0.3,0.5-0.6,0.8-0.8c0.3-0.2,0.6-0.3,1-0.3c0.5,0,0.9,0.2,1.3,0.5c0.3,0.3,0.5,0.7,0.6,1.1
			c0.1,0.4-0.1,0.9-0.4,1.3l-7.1,10.8v-2.8l7.6,11.5c0.3,0.5,0.4,1,0.4,1.4c0,0.4-0.2,0.8-0.6,1.1C292.2,445.9,291.7,446,291.3,446z
			"/>
		<path class="st0" d="M306.5,446.6c-1.9,0-3.5-0.4-5-1.2c-1.5-0.8-2.7-1.9-3.5-3.3c-0.9-1.4-1.3-3-1.3-4.7v-8
			c0-1.7,0.4-3.3,1.3-4.7c0.8-1.4,2-2.5,3.5-3.3c1.5-0.8,3.2-1.2,5-1.2c1.9,0,3.5,0.4,5,1.2c1.5,0.8,2.6,1.9,3.5,3.3
			c0.8,1.4,1.3,3,1.3,4.7c0,0.6,0,1.3,0,1.9c0,0.6,0,1.3,0,1.9c0,0.6-0.2,1-0.5,1.3c-0.4,0.3-0.8,0.5-1.4,0.5h-15.3l1.5-1.2v3.6
			c0,1.1,0.3,2.2,0.8,3.1c0.5,0.9,1.2,1.6,2.2,2.1c0.9,0.5,2,0.7,3.2,0.7c1.3,0,2.5-0.3,3.5-0.9c1-0.6,1.8-1.4,2.4-2.4
			c0.3-0.4,0.6-0.7,0.9-0.9c0.3-0.2,0.6-0.3,1-0.3c0.4,0,0.8,0.1,1.1,0.4c0.3,0.3,0.4,0.7,0.4,1.2c0,0.4-0.1,0.9-0.4,1.4
			c-0.3,0.5-0.6,1.1-1.2,1.6c-0.9,1-2,1.8-3.2,2.3C309.6,446.3,308.1,446.6,306.5,446.6z M300.3,432.8l-1.5-1.1h14.8l-1.2,1.1v-3.6
			c0-1.1-0.3-2.2-0.8-3.1c-0.5-0.9-1.2-1.6-2.1-2.1c-0.9-0.5-2-0.8-3.1-0.8c-1.2,0-2.2,0.3-3.1,0.8c-0.9,0.5-1.6,1.2-2.2,2.1
			c-0.5,0.9-0.8,1.9-0.8,3.1V432.8z"/>
		<path class="st0" d="M334.1,425.5c-0.7,0-1.3-0.2-1.7-0.7c-0.5-0.5-0.7-1.1-0.7-1.7c0-0.7,0.2-1.3,0.7-1.8c0.5-0.5,1-0.7,1.7-0.7
			c0.7,0,1.3,0.2,1.7,0.7c0.4,0.5,0.7,1.1,0.7,1.8c0,0.7-0.2,1.2-0.7,1.7C335.3,425.3,334.8,425.5,334.1,425.5z M334.1,446.3
			c-0.7,0-1.3-0.2-1.7-0.7c-0.5-0.5-0.7-1.1-0.7-1.8c0-0.7,0.2-1.2,0.7-1.7c0.5-0.5,1-0.7,1.7-0.7c0.7,0,1.3,0.2,1.7,0.7
			c0.4,0.5,0.7,1.1,0.7,1.7c0,0.7-0.2,1.3-0.7,1.8C335.3,446.1,334.8,446.3,334.1,446.3z"/>
		<path class="st0" d="M356.1,445.8c-0.6,0-1.2-0.1-1.7-0.4c-0.5-0.3-0.9-0.6-1.2-1.1c-0.3-0.4-0.4-1-0.4-1.5v-30.4
			c0-0.8,0.3-1.5,0.9-2.1c0.6-0.6,1.4-0.9,2.3-0.9h8.6c2.6,0,4.9,0.6,6.9,1.7c2,1.1,3.6,2.7,4.7,4.6c1.1,2,1.7,4.2,1.7,6.8v10.2
			c0,2.5-0.6,4.8-1.7,6.8c-1.1,2-2.7,3.5-4.7,4.6c-2,1.1-4.3,1.7-6.9,1.7H356.1z M359.3,442.1l-2.3-2.3h7.7c1.3,0,2.5-0.3,3.6-0.9
			c1-0.6,1.8-1.4,2.4-2.5c0.6-1.1,0.9-2.3,0.9-3.8v-10.2c0-1.5-0.3-2.7-0.9-3.8c-0.6-1.1-1.4-1.9-2.4-2.5c-1-0.6-2.2-0.9-3.6-0.9
			H357l2.3-2.3V442.1z"/>
		<path class="st0" d="M393.6,446.6c-2,0-3.8-0.4-5.4-1.3s-2.8-2-3.8-3.5c-0.9-1.5-1.4-3.1-1.4-4.8v-8c0-1.7,0.5-3.3,1.4-4.8
			c0.9-1.5,2.2-2.6,3.8-3.5c1.6-0.9,3.4-1.3,5.4-1.3c2,0,3.8,0.4,5.4,1.3c1.6,0.9,2.9,2,3.8,3.5c0.9,1.5,1.3,3.1,1.3,4.8v8
			c0,1.7-0.4,3.3-1.3,4.8c-0.9,1.5-2.2,2.6-3.8,3.5C397.3,446.1,395.5,446.6,393.6,446.6z M393.6,441.4c0.9,0,1.7-0.2,2.4-0.5
			c0.7-0.4,1.2-0.9,1.6-1.6c0.4-0.7,0.6-1.4,0.6-2.3v-8c0-0.9-0.2-1.6-0.6-2.3c-0.4-0.7-0.9-1.2-1.6-1.6c-0.7-0.4-1.5-0.5-2.4-0.5
			c-0.9,0-1.7,0.2-2.4,0.5c-0.7,0.4-1.2,0.9-1.6,1.6c-0.4,0.7-0.6,1.4-0.6,2.3v8c0,0.9,0.2,1.6,0.6,2.3c0.4,0.7,0.9,1.2,1.6,1.6
			C391.9,441.2,392.7,441.4,393.6,441.4z"/>
		<path class="st0" d="M419.5,446.6c-2,0-3.8-0.4-5.4-1.3s-2.8-2-3.8-3.5c-0.9-1.5-1.4-3.1-1.4-4.8v-8c0-1.7,0.5-3.3,1.4-4.8
			c0.9-1.5,2.2-2.6,3.8-3.5c1.6-0.9,3.4-1.3,5.4-1.3c1.4,0,2.7,0.3,4,0.8c1.3,0.5,2.4,1.2,3.3,2.1c0.6,0.6,1,1.2,1.4,1.9
			c0.3,0.7,0.5,1.3,0.5,2c0,0.7-0.2,1.2-0.7,1.7c-0.5,0.4-1,0.7-1.7,0.7c-0.6,0-1.1-0.1-1.5-0.4c-0.4-0.3-0.9-0.7-1.4-1.4
			c-0.6-0.8-1.2-1.3-1.8-1.6c-0.6-0.3-1.2-0.5-2-0.5c-0.9,0-1.7,0.2-2.4,0.5c-0.7,0.4-1.2,0.9-1.6,1.6c-0.4,0.7-0.6,1.4-0.6,2.3v8
			c0,0.9,0.2,1.6,0.6,2.3c0.4,0.7,0.9,1.2,1.6,1.6c0.7,0.4,1.5,0.5,2.4,0.5c0.8,0,1.6-0.2,2.2-0.5c0.6-0.4,1.3-1,2-1.9
			c0.6-0.7,1.1-1.2,1.5-1.5c0.4-0.3,0.9-0.4,1.5-0.4c0.7,0,1.3,0.2,1.7,0.7c0.5,0.4,0.7,1,0.7,1.7c0,0.8-0.2,1.5-0.6,2.3
			c-0.4,0.7-1,1.5-1.8,2.2c-1,0.9-2.1,1.6-3.4,2.1C422.1,446.3,420.8,446.6,419.5,446.6z"/>
		<path class="st0" d="M441.1,446.6c-1.6,0-3-0.3-4.3-0.8c-1.3-0.5-2.4-1.2-3.3-2.1c-0.7-0.6-1.2-1.2-1.5-1.8
			c-0.3-0.6-0.5-1.2-0.5-1.8c0-0.7,0.2-1.2,0.7-1.7c0.5-0.4,1-0.7,1.7-0.7c0.6,0,1.2,0.1,1.6,0.4c0.5,0.3,1,0.7,1.6,1.4
			c0.6,0.7,1.2,1.2,1.8,1.5c0.6,0.3,1.3,0.4,2.1,0.4c0.8,0,1.5-0.1,2-0.4c0.6-0.2,1-0.6,1.3-1c0.3-0.4,0.4-0.9,0.4-1.3
			c0-0.6-0.2-1.2-0.6-1.6c-0.4-0.4-0.9-0.8-1.6-1.1c-0.6-0.3-1.5-0.6-2.6-1c-1.7-0.6-3-1.2-4.1-1.8c-1.1-0.6-2-1.3-2.7-2.4
			c-0.8-1-1.1-2.4-1.1-4c0-1.3,0.4-2.6,1.2-3.7c0.8-1.2,1.9-2.1,3.2-2.8c1.4-0.7,2.9-1,4.7-1c1.5,0,2.8,0.2,4.1,0.7
			c1.2,0.4,2.2,1,3,1.7c0.6,0.5,1,1.1,1.4,1.7c0.3,0.6,0.5,1.1,0.5,1.7c0,0.7-0.2,1.2-0.7,1.7c-0.5,0.4-1.1,0.7-1.8,0.7
			c-0.5,0-1-0.1-1.4-0.3c-0.4-0.2-0.9-0.5-1.4-1c-0.6-0.6-1.2-1-1.7-1.2c-0.6-0.2-1.2-0.4-2-0.4c-0.7,0-1.2,0.1-1.7,0.3
			c-0.5,0.2-0.8,0.5-1.1,0.9c-0.2,0.4-0.4,0.8-0.4,1.2c0,0.6,0.2,1.1,0.6,1.5c0.4,0.4,0.9,0.8,1.6,1.1c0.6,0.3,1.5,0.6,2.6,1.1
			c1.6,0.6,3,1.2,4,1.7c1.1,0.5,2,1.3,2.7,2.4c0.7,1.1,1.1,2.4,1.1,4c0,1.4-0.4,2.7-1.2,3.9c-0.8,1.2-1.9,2.2-3.4,2.9
			C444.7,446.2,443,446.6,441.1,446.6z"/>
	</g>
	<path class="st1" d="M244.2,381.5c-3.5,0-6.3-1-8.5-2.9c-2.2-1.9-3.3-4.8-3.3-8.5c0-1.5,0.1-2.9,0.4-4.1c0.2-1.3,0.5-2.5,0.7-3.8
		c0.2-1.3,0.4-2.7,0.4-4.2c0-1.1-0.2-2.1-0.7-2.9c-0.4-0.9-1.2-1.6-2.2-2.2c-1-0.6-2.4-0.9-4.1-1.1v-7.3c1.8-0.2,3.1-0.5,4.1-1.1
		c1-0.5,1.7-1.2,2.2-2.1c0.4-0.9,0.7-1.9,0.7-2.9c0-1.5-0.1-2.9-0.4-4.2c-0.2-1.3-0.5-2.5-0.7-3.8c-0.2-1.3-0.4-2.6-0.4-4.1
		c0-3.7,1.1-6.5,3.3-8.5c2.2-1.9,5-2.9,8.5-2.9h4.4v7.5h-2.7c-1.6,0-2.8,0.4-3.5,1.1c-0.8,0.7-1.2,1.9-1.2,3.5
		c0,1.1,0.1,2.3,0.3,3.4c0.2,1.2,0.4,2.4,0.6,3.7c0.2,1.3,0.3,2.8,0.3,4.5c0,2.4-0.6,4.4-1.7,6.1c-1.1,1.7-3,2.8-5.6,3.3v0.1
		c2.6,0.5,4.4,1.7,5.6,3.3c1.1,1.7,1.7,3.7,1.7,6.1c0,1.7-0.1,3.2-0.3,4.5c-0.2,1.3-0.4,2.6-0.6,3.7c-0.2,1.1-0.3,2.3-0.3,3.5
		c0,1.6,0.4,2.7,1.2,3.5c0.8,0.8,2,1.1,3.5,1.1h2.7v7.5H244.2z"/>
	<path class="st1" d="M310.5,381.5h-4.4V374h2.7c1.6,0,2.8-0.4,3.6-1.1c0.8-0.8,1.1-1.9,1.1-3.5c0-1.2-0.1-2.3-0.3-3.5
		c-0.2-1.1-0.4-2.4-0.6-3.7c-0.2-1.3-0.3-2.8-0.3-4.5c0-2.4,0.6-4.4,1.8-6.1c1.2-1.7,3-2.8,5.6-3.3v-0.1c-2.6-0.5-4.4-1.6-5.6-3.3
		c-1.2-1.7-1.8-3.7-1.8-6.1c0-1.7,0.1-3.2,0.3-4.5c0.2-1.3,0.4-2.6,0.6-3.7c0.2-1.2,0.3-2.3,0.3-3.4c0-1.6-0.4-2.8-1.1-3.5
		c-0.8-0.7-2-1.1-3.6-1.1h-2.7V315h4.4c3.5,0,6.4,1,8.6,2.9c2.2,1.9,3.2,4.7,3.2,8.5c0,1.5-0.1,2.9-0.3,4.1
		c-0.2,1.3-0.5,2.5-0.7,3.8c-0.2,1.3-0.4,2.7-0.4,4.2c0,1.1,0.2,2.1,0.7,2.9c0.4,0.9,1.2,1.6,2.2,2.1c1,0.5,2.3,0.9,4,1.1v7.3
		c-1.7,0.2-3.1,0.6-4,1.1c-1,0.6-1.7,1.3-2.2,2.2c-0.4,0.9-0.7,1.9-0.7,2.9c0,1.5,0.1,2.9,0.4,4.2c0.2,1.3,0.5,2.5,0.7,3.8
		c0.2,1.3,0.3,2.6,0.3,4.1c0,3.7-1.1,6.6-3.2,8.5C316.9,380.6,314,381.5,310.5,381.5z"/>
	<g>
		<rect x="253.8" y="332.4" class="st0" width="49.2" height="35.9"/>
		<polygon class="st1" points="253.8,368.3 290.4,358.9 290.4,323.5 253.8,332.4 		"/>
		<polygon class="st2" points="253.8,368.3 278.5,350.3 278.5,313.7 253.8,332.4 		"/>
	</g>
</g>
</svg>
